<svg id="Layer_1" data-name="Layer 1" xmlns="http://www.w3.org/2000/svg" xmlns:xlink="http://www.w3.org/1999/xlink" viewBox="0 0 246 112"><defs><style>.cls-1{fill:url(#radial-gradient);}.cls-2,.cls-4{fill:#fff;}.cls-2{opacity:0.12;isolation:isolate;}.cls-3{fill:#b3cc0f;}</style><radialGradient id="radial-gradient" cx="119.79" cy="63.42" r="100.1" gradientTransform="matrix(1.01, 0, 0, -0.78, 2.19, 105.42)" gradientUnits="userSpaceOnUse"><stop offset="0" stop-color="#1e285c"/><stop offset="1" stop-color="#1d203c"/></radialGradient></defs><title>slm-construcciones-logo</title><rect class="cls-1" width="246" height="112"/><path class="cls-2" d="M128.34,24.52h0v.25h.51v-.51l-.51.25ZM74.17,75.89ZM183,67.75ZM152,48.42Zm.25-.51Zm5.09-4.83c-.25-.76,0,.51,0,0ZM103.16,26.3Zm12.46,69.94H23.3V96l.25-1,.25-.76.25-1,.25-.25.25-.25.25-.25.25-.51.25-.25.25-.51.25-.25.25-.25h.25v-.51l.25-.25.25-.25h29l1.53-.25.25-.25.25-.25.25-.25.25-.51.25-1.27.25-.51.25-.25.25-.25h.25L59.42,85v-.51h.76v-.76l.25-.51.25-.51.76-.25.25-.51.25-.51.25-.76.25-.51L63,80l.25-.51.25-.51.51-.25.25-1H65v-.76l.51-.25.25-.76H65v-.51h.51l.25-.25.25-.76.25-.25.25-.25.25-.25.25-.25.25-.25.25-.25.25-.25.25-.25.25-.25h.51v-.51l.25-.25.25-.25.25-.51h.25v-1h-.51v-.76h.25l.25.25.25-.25v-.51l.25-.25.25-.25h.51l.25-.25.25-1,.25-.25.25-.25.25-.25.25-.25V63.94h.51V61.39l.25-.25.51-.25h.76v-.51l.76-.25.25-.25.25-.25.25-.76v-.76H77v-.51l.25-.25.25-.25.25-.25h.76v1.53l-.25.25h-.51v.51h-.25v.25h.25v.51h-2v.51l.25.25v-.25h2.54l.25.25.25.25.51.25v4.07H80V64.7l.25-.25,1-.25h1.27v-.25l.25-.25.25-4.83.25-.76h-.76l-.25-.25-.25-.25-.25-1-.25-1.78V52.49L81.8,51l.25-.51.76-.25,1.78-.25h.51v-.76l.25-1,.25-1.27.25-.76.25-1.27.25-1,.25-1.27.25-.76.25-.76-.25.25h-.76L85.87,41l-.25-.25v-.25l.25-.76.25-1.27.25-.51.25-.25.25-.51.25-.76V36l-.25-.51-.25-.51-.25-.25-.25-.25-.25-.25-.51-.25-.25-.25-.51-.25-.25-.25-.76-.25v4.32l-.25,1.53-.25.76-.25.25-.25.25-.25.25L81,40.54h-.76l-.76-.25L79.26,40,79,39.78l-.25-1v-.51H79V34.69h-.51l-.25-1.27L78,32.91V32.4l.25-.25.25-.25.51-.25.25-1,.25-.25.25-.25.25-.25.76-.25h1.53l.51.25.25.25.25.25.25.25.25.25.25.25.76.25.25.25.25.25.25.25.25.25.25.25.25.25.51.25.25.25.25.25.25.25.25.51v1.78l-.25,1.27h.25v-.76l.25-.76.25-.25.25-.25.25-.25.25-.25h.51v-.25l.76-.25H92l1.27.25v-1l.25-1.53.25-1.27.25-1,.25-.76.25-.76H94l-.25-.25v-.25h.76l-.25-.25v-.51H93.5L93,26.8v-.25l-.25-.25v-.51l-.25-.51v-.76l.25-1.27.25-.76.25-.51.25-.76.25-.76.25-.76.25-.76.25-1,.25-.76.25-.76.25-.76.25-1,.25-.76.25-.25.25-.51.25-.51h.76v.76l-.25.51-.25,1-.25.25-.25,1.27-.25.76-.25,1-.25.76-.25,1L95,20.7l-.25.51.76-.25.25-.25,1.27-.25.25-.25h.25v-.25l.25-.25h1.53l3.05-.25.25-.25,3.05-.25.25-.25H110v-.51l.76-.25.76-.25h2.54l7.63-.25.51-.25h8.9v.51h.76l.76.25.25.25.76.25v.51h.76l-.51-.25V17.9l.25-.25h.51l.25.25v.51h4.32l.76.25v.25h.25v-.76h1v.25l4.32.25,1.78.25v.51h2.8l.25.25H151v-.25h.51v.25l1.27.25,1,.25v.51H155v.51h.51l.76.25.25.25.25.25.25.25v.51h.51l.25.51.51.25.25.76.25,1,.25.76v2.29l-.25.25-.25.51-.25,1-.25.25-.25,1.27h.51l1.53.25v1h-.51l-.25.25h-1.27v2.29h.25l.25,2.8.25,2.54.25,2.8.25,2.54.25,3.05.25,2.54.25,2.54.25,2.54v.76l1-.25h.25l.51.25.25.25v.76l-.25.25-.25.25-.25.25h-.76l-.25.25V64.7l.51-.25.25-.76.25-.25.25-.25.25-.25.25-.51.25-.25.25-.25.25-1.53.25-1.78.25-.51.25-.76.25-.51.25-.25.25-.76.25-.25.25-.25.25-.51.25-.51.25-.25.25-.25.25-.25.25-.51.25-.25.25-.51.25-.51.25-.25.25-.25L168,51l.25-.25.25-.51.25-.25.25-.25.25-.25.25-.51.25-.25.25-.51.25-.51.25-.25.25-.25.25-.25.25-.51.25-1,.25-.51h.76V43.59l.25-.25h1v-.76h.51v-.51l.25-.51,1-.25h.76v-.51l.25-.51.25-.25.25-.51.25-.51.25-.25.25-.51.25-.51.25-.25.25-.76.25-.51.25-.51.25-.25.25-.76.25-.51.25-.25.25-.51.25-.76.25-.25.25-.51.25-.51.25-.25.25-.76.25-.51.25-.51.25-.25.25-.76.25-.51.25-.25.25-.76.25-.51.25-.51.25-.25.25-.51.25-.25.25-.76.25-.51.25-3.81.25-1,.25-.76h.25v-.51l.25-.25.25-.51.25-.25.25-.25.25-.25.25-.25.25-.25.25-.25.25-.25.25-.25.25-.25.25-.25.25-.25.25-.25.25-.25.25-.25.25-.25.25-.25.25-.25.25-.25.25-.25.25-.25.25-.25.25-.25.25-.25.25-.25.25-.25.25-.25.25-.25.51-.25.25-.25.76-.25h4.32l.25.25.25.25.25.25.25.25.25.25.25.25.25.25.25.25.25.25.25.25.25.51.25.51.25.51.25.25.25.51.25.25.25.51.25.51.25.51.25.51.25.76.25.25.25.51.25.51.25.25.25.76.25.76.25,1,.25.25.25.51.25.76.25.76V24h.25l.25.25.25.51.25.51.25.25,1.53.25.51.25.25.25.25.25.25.25.25.51.25.25.25.25.25.51.25.25v.76h.25l.25.51.25.76v.51h.25v.25h-8.89v1h.25l.25.25.25.76.51.25.25.51v.76l-.25,2.29.25,1.27v2.8l.25.76.25,1.27.25.76.25.76v.51l.25.25.25.76.25.51.25.76.25,1.53.25,1,.25.25L210,51l.25.51.25.76.25.76.25.76.25.25.25,1,.25.25.25,1.27.25.76.25.51.25.25.25,1,.25,1.53.25.76.25.51.25,1.27.25,1v2l-.25,1.53V68l.25,1,.25.76.25,1.27.25.51.25,1,.25,1,.25,1,.25.25.25,1.27.25.76.25.76.25,1,.25.51.25.25.25,1,.25.25v1l.25.76.25.76.25.76v1l.25.76.25.25.25.25.25.25v.51h.51l.25.51.51.25v.51h.51l.25.51.25.25.25,1,.25.25v3.05l-.25.76h-7.88v-.25h-.25l-.25.25h-29l-.25-.25-.25-.76-.25-1V87.84l.25-.76.25-.76.25-1.27.25-.76.25-.76.25-2.54.25-.76v-2l.25-.76.25-.76.25-.76.25-2.54.25-1.27.25-.76.25-.25h1.27v-.51h.76v-.76h.76l.25,1.27.25,1.53.25.76.25.76.25.25v.25l.25.25.25.25.25.51.25.51.25.25.25.51.25.25.25.25.25.25.25.25.25.25V80l-.25.76-.25.25.25.51.25.25L195,82l.25.25.25.25.25.25L196,83l.25.25.25.25.25.25L197,84l.25.25.25.25.51.25.25.25.25.25.25.25.51.25.25.25.25.25.25.25.51.25.51.25.25.25.51.25.51.25.25.25.51.25.51.25.51.25.76.25.51.25,1,.25.76.25v.25h1.27l-.25-.51-.25-1-.25-1-.25-.76-.25-1-.25-.25-.25-.25-.25-.76-.25-.76v-.51l-1.53.25h-.76v.76h-.25l-.76-.25V82.76l-.25-.76-.25-.25-.76-.25v-.76h.25v-.25h-.25l-.25-.76V79.2h-.51l-.25-.76-.25-.51V76.4h-.25l-.25-.51-2-1.78-.25-.25-.25-.76L197,71.82l-.25-.25-.25-.25-.51-.25V70l-.25-.76-.25-.25-.25-.76-.25-.51v-.51h-.51l-.25-1.53-.51-.25-.25-.51-.25-.76-.25-.25-.25-.25-.25-.25-.25-1.53-.25-.25-.25-.51-.25-.51-.25-.51-.25-.25-.25-.51-.25-.76-.25-.51-.25-.76-.25-.51-.25-.51L189.13,55l-.25-1-.25-.25-.25-.51-.25-.76-.25-1-.25-.76-.25-1.53-.25-.76-.25-.25-.25-.76-.25.51-.25,2-.25.25-.25,1.27-.25.25h-.25v2l-.25.51-.25.76-.25.51-.25.76-.25.76-.25.51-.25,1.53L183,60.88h-.51v.51l-.25,1.53-.25.25V65l-.25.25-.25.76-.25.25L181,67.75l-.25.76-.25.76-.25.25H180v.25h.25v1l-.25.25-.25.76-.25.76-.25.51-.25.76-.25.76-.25,2,.25.25V80H180v4.83l-.25,2.8-.25,5.6V97H115.63Zm41.2-51.12h0l.25-.25h0l-.25.25Zm.51-1.53h.25v-.25h0v-.25h0v-.25h.51v-.25h.25v-.25h.25v-.51h0l.25-.25V40h0V38h0V34.69h0v1l-.25.25v.51l-.25.25v.76h-.25V38l-.25.25V39l-.25.51v.25l-.25.51h0V41l-.25.25v.51l-.25.25v.76l-.25.25h.25v.25h0v.25ZM74.17,75.89Zm37.13-9.66Zm0,0Zm0,0Zm0,0Zm0,0Zm0,0Zm0,0Zm73.25,6.1ZM86.12,68.77l-.25,2.54H87.4c.25,0,.25,0,.51-.25l.51-2.54H86.63c-.25,0-.25.25-.51.25Zm100.21.76ZM77.48,67.75H78V67.5l-.51.25ZM94.77,57.07v-.25h.76v-2l.25-1v-.51h-.25V53l.25-.25H95v.76h-.25l-.76.25H93.5v3.81H94v-.25h.76v-.25ZM183,67.75Zm-2.8-12.21v-.76H180v1.27h.25v-.51Zm3.05,16.28V68l.25.25v.51l.25.25v.25H184v-.76h0l-.25-.25h0l-.25-.51v-1h0V65.21h-.25V62.92l-.25-.25V60.38l-.25-.51V58.09H183v2.54h.25v1.53l.25.25v.25H184v.51l.25.76v1.27l.25.51v.76l.25.51h0v.76h-.25V68h.51v.76l.25.51h0v.51l.25.25v2.29l.25.76h-.51v-.25h-.25v-.25l-.25-.25h-1.53Zm-91.81-14H92v-.25l-.51.25ZM84.6,56.31h.25v-.25l-.25.25ZM148.69,55h.51V53.76l.25-.25v-.25l.25-.25v-.76l.25-.51V51h0v-.25h.25v-.25h0v.25h-.51v.51h0l-.25.25h0v.25h0V52h-.25v-.51h0l-.25.25h0v.76h-.25V53l-.25.76.25,1.27ZM152,48.42Zm.25-.51ZM140,62.67l-.76-3.31V59.1l-3.56,1,.25.51-3.05,2.8.25.25h0l-.76,1.53-.25-.25-1.27,2.29h0l-.51,2.8h.25l1,.25L140,62.67Zm-8.65,8.14-2.54-.51V63.68l2.8-1.27v-.76h-.51v-.25h.51l.51-1.27h.25l.25,1h.25l.25-1h-.51l.25-2.54h.51l.25-1.27h0v-.76h.76l-.76,4.83h.51l.51-1.53H135V56.56h.51L135.21,55l-5.85-.76V54h2l.51-2h.25l-.51-1h-.76l-.51,1v-.25l-.51-1h0c0-.76-.25-.51-.25-1V48.17h1v-.25h1.53V50.2c.76,0,.51-.25.51.25h.25l.51-.51h0V48.17h.51V45.63h.25L133.68,39h-.25l.25-2.8h.51c-1.53-1.27,0-5.34-1-5.34h-1.53c-.51,0-.51.76-.76,1-.76,1,.25-.25-.51-.51l-.51,3.05.25,1.53h-.25v1.78h.25l.51-3.05v3.56h-.51l-1.27,14h-.25l-.25,8.9h.25l.25-3.56h.51v.51h0l-.25,4.07h0c-1.78,0-1.27-1-1.27,3.05V70.3h.51l.25.25-.51.76v.25l3.31-.76ZM98.08,43.34V41l.25-.76V38.5l.25-.51H96.81v.51h-.25V40H96v.25h.25v.25H96v1.53l-.25,1v1.78l-.25,1v.76h-.25l.25.25h0l.25,1v1H96v.76h.51v-.25h.25l.25-.51V47.66l.25-.76V45.12l.25-.76v-.76l.51-.25Zm59,1.53Zm0-.51Zm.25-.25Zm0-.25Zm0,0Zm6.61-8.65h0l-.25-.25v2h0v.25h0v.25h0v-.25h0V37h0V35.2Zm14.5.76h0l-.25-.51V33.93h0l-.25-.25h-.51v.25h0v.25h0v.25h0v.25l1,1.27ZM105.2,31.89l2.29.51.51.25-3.81,13.73h-.25l-.25,1.53h-.25V45.63c0,.25-.51,6.61-.25,7.12l.25,1h1.27V54h.76l-.25-.76h.51v-.51H106L107.74,38h.51c0-1.27,1-2.54,1-5.34V32.4l-4.07-.51Zm52.14,11.19c0,.51-.25-.76,0,0Zm3.56-3.81Zm-41.71-13v1.78c0,.25,0,.25.25.25h.76l2.29-.25V25.79l-3.31.51Zm-.76,0,.25,2.54H122c.51,0,.76-.25,1-.25V26.3c-.25-.25-.25-.25-.51-.25h-1.27l-2.8.25Zm-15.26,0Zm23.65-1.53h0l.25-.25h-.25Z"/><path class="cls-3" d="M197.25,62.86a5,5,0,1,1-5,5,5,5,0,0,1,5-5ZM231.82,40.6V68.23a3.88,3.88,0,0,1-4,3.7h0a3.88,3.88,0,0,1-4-3.7V49.48c-14.51,12.35-35.83,14.29-53.41.27V68.23a3.88,3.88,0,0,1-4,3.7h0a3.88,3.88,0,0,1-4-3.7V41.81a5.09,5.09,0,0,1,0-1.17h0c.5-3.61,4.87-4.28,6.85-2.34,19.7,17.58,38.85,15.41,55.08.63,2.39-2.52,7.71-1.94,7.53,1.67ZM25.08,37.44H75.65c5,0,5,7.62,0,7.62h-50c-4.15.18-4.15,5.54.18,5.54H70.78c5.72,0,11.13,4.51,11.13,10.5a10.79,10.79,0,0,1-10.68,10.5H20.3a3.87,3.87,0,0,1-3.79-3.92h0a3.87,3.87,0,0,1,3.79-3.92H71.23c3.52-.32,2.79-5.32-.45-5.32H24.86c-4,0-10.59-3.47-10.68-10.46.14-7,6.45-10.55,10.91-10.55Zm76,26.46H150.6a3.91,3.91,0,0,1,3.74,4h0a3.88,3.88,0,0,1-3.74,4H100.8c-5.68,0-11.09-5.41-10.91-10.73V40.87a4,4,0,0,1,4-3.88h0a4,4,0,0,1,4,3.88v20c.09,1.53.72,2.88,3.15,3Z"/><path class="cls-4" d="M56.27,83a2.15,2.15,0,0,1-1-.23.7.7,0,0,1-.36-.59V77.37a.65.65,0,0,1,.36-.59,1.83,1.83,0,0,1,.95-.23h6.58v1.62H57.53v3.2h5.23V83H56.27Zm10.1-1.58H69v-3.2H66.37ZM65,83a2,2,0,0,1-.95-.23.77.77,0,0,1-.36-.59V77.33q0-.47.68-.68a1.64,1.64,0,0,1,.63-.09h5.23a1.34,1.34,0,0,1,1.08.45.66.66,0,0,1,.23.36V82.2c0,.32-.18.54-.59.68a1.76,1.76,0,0,1-.72.09Zm14.6-6.4a1.91,1.91,0,0,1,.9.23q.41.27.41.54v5.59H78.31V78.1H75.7v4.82H73.08v-6.4h6.54Zm2.57.81c0-.54.45-.81,1.31-.81h6.58v1.62H84.85v.95h3.92a1.85,1.85,0,0,1,1.31.81V82.2c0,.27-.18.5-.59.68a1.72,1.72,0,0,1-.72.14H83.54l-1.31-1.62h5.23v-.95h-4a1.78,1.78,0,0,1-.9-.23.64.64,0,0,1-.36-.54v-2.3Zm11.45.81H91V76.56h7.84v1.62H96.25V83H93.63V78.19Zm14.15,1.44a.7.7,0,0,1-.36.59,1.83,1.83,0,0,1-.95.23h-.54L107.79,83h-2.61l-2.43-3.88h2.43v-.95h-2.61V83H99.94v-6.4h6.58a1.8,1.8,0,0,1,1.08.41.48.48,0,0,1,.23.41v2.21ZM115.72,83h-5.23a2.1,2.1,0,0,1-.95-.23.64.64,0,0,1-.36-.54V76.61h2.61v4.82h2.61V76.61H117V82.2c0,.5-.41.77-1.31.77Zm4.15,0a2.15,2.15,0,0,1-1-.23.7.7,0,0,1-.36-.59V77.37a.65.65,0,0,1,.36-.59,1.83,1.83,0,0,1,.95-.23h6.58v1.62h-5.23v3.2h5.23V83h-6.54Zm8.83,0a2.15,2.15,0,0,1-1-.23.62.62,0,0,1-.36-.59V77.37a.65.65,0,0,1,.36-.59,1.83,1.83,0,0,1,.95-.23h6.58v1.62H130v3.2h5.23V83H128.7Zm10.1-6.4V83h-2.61v-6.4Zm4.06,4.82h2.61v-3.2h-2.61ZM141.54,83a1.83,1.83,0,0,1-.95-.23.77.77,0,0,1-.36-.59V77.33q0-.47.68-.68a1.64,1.64,0,0,1,.63-.09h5.23a1.34,1.34,0,0,1,1.08.45.66.66,0,0,1,.23.36V82.2c0,.32-.18.54-.59.68a1.76,1.76,0,0,1-.72.09Zm14.6-6.4a1.91,1.91,0,0,1,.9.23.66.66,0,0,1,.41.54v5.59h-2.61V78.1h-2.66v4.82h-2.61v-6.4h6.58Zm9.69.81c0-.54.45-.81,1.31-.81h6.58v1.62H168.5v.95h3.92a1.85,1.85,0,0,1,1.31.81V82.2c0,.27-.18.5-.59.68a1.72,1.72,0,0,1-.72.14h-5.23l-1.31-1.62h5.23v-.95h-4a1.78,1.78,0,0,1-.9-.23.64.64,0,0,1-.36-.54v-2.3ZM177.78,83h-2.61V81.34h2.61Zm5.36,0V81.34H184l-.81-2.07L181.84,83h-2.61l2.61-6.4h2.66l2.61,6.4h-4Zm7.93,0h-2.61V81.34h2.61Z"/></svg>