<svg id="Layer_1" data-name="Layer 1" xmlns="http://www.w3.org/2000/svg" xmlns:xlink="http://www.w3.org/1999/xlink" viewBox="0 0 138 130"><defs><style>.cls-1,.cls-5{fill:#fff;}.cls-2{fill:#b3cc0f;}.cls-3{fill:url(#radial-gradient);}.cls-4{fill:url(#radial-gradient-2);}.cls-5{opacity:0.12;isolation:isolate;}</style><radialGradient id="radial-gradient" cx="-1537.47" cy="-1650.65" r="150.9" gradientTransform="matrix(0.44, 0, 0, -0.44, 743.03, -658.3)" gradientUnits="userSpaceOnUse"><stop offset="0" stop-color="#1e285c"/><stop offset="1" stop-color="#191b34"/></radialGradient><radialGradient id="radial-gradient-2" cx="-571.23" cy="-582.43" r="84.85" gradientTransform="matrix(0.66, 0, 0, -0.66, 447.05, -320.39)" xlink:href="#radial-gradient"/></defs><title>slm-construccion-logo2</title><path class="cls-1" d="M99.12,4.74a52.94,52.94,0,0,1,14.46,1.87,30.23,30.23,0,0,1,8.7,4,21.45,21.45,0,0,1,8.84,13.66A35.93,35.93,0,0,1,131.38,35c-.4,3.21-.67,6.43-1.2,9.64-.67,4.82-1.47,9.77-2.41,14.59a157.26,157.26,0,0,1-5,20.48,118.13,118.13,0,0,1-9.24,22.62,60.33,60.33,0,0,1-9.1,12.58,34.72,34.72,0,0,1-15.66,9.64A30.05,30.05,0,0,1,79,125.63a45.29,45.29,0,0,1-18.21-4.69,94.21,94.21,0,0,1-19.14-12A190.46,190.46,0,0,1,21.33,90.28c-2.68-2.81-5.35-5.76-8-8.7A27.49,27.49,0,0,1,7,70.34a26.4,26.4,0,0,1,.94-16.06,43.79,43.79,0,0,1,7.9-12.85A77.28,77.28,0,0,1,31.11,27.9,133.9,133.9,0,0,1,69.26,9.56,111.77,111.77,0,0,1,85.33,5.81a67.64,67.64,0,0,1,9.1-.94C96,4.87,97.51,4.74,99.12,4.74ZM79.44,121.21c1.61-.13,3.35-.27,5-.54a28.93,28.93,0,0,0,13.92-6.43,45.91,45.91,0,0,0,9-10,84.17,84.17,0,0,0,8.43-16.6c4.82-12.72,7.63-26,9.64-39.36.54-3.48.94-7,1.34-10.58a36.51,36.51,0,0,0,.13-9.37,19.75,19.75,0,0,0-5.09-11.25,22.22,22.22,0,0,0-8.17-5.35A40.7,40.7,0,0,0,99.78,9,65.67,65.67,0,0,0,85.33,10a106.54,106.54,0,0,0-19,4.69A125.35,125.35,0,0,0,34.05,30.71,77.21,77.21,0,0,0,19.33,44a40.27,40.27,0,0,0-6.69,11A22.58,22.58,0,0,0,12,70.6a27.06,27.06,0,0,0,6,9.91c3.75,4.15,7.63,8.3,11.65,12.18a163.65,163.65,0,0,0,18.74,15.93,72.92,72.92,0,0,0,16.73,9.24A35.11,35.11,0,0,0,79.44,121.21Z"/><path class="cls-2" d="M131.51,34.59C122,124.42,84.39,161.5,13.7,82.25-31.41,31.78,138.88-34.89,131.51,34.59Z"/><path class="cls-3" d="M101.39.19a56.89,56.89,0,0,1,15.53,2,33.73,33.73,0,0,1,9.24,4.15,23.09,23.09,0,0,1,9.77,15.26,37.74,37.74,0,0,1,.27,11c-.4,3.75-.8,7.5-1.34,11.25-.8,5.09-1.61,10.31-2.54,15.4a186.17,186.17,0,0,1-5.62,22.62,121,121,0,0,1-9.24,22.36,61.57,61.57,0,0,1-10.84,14.73,37.3,37.3,0,0,1-15.53,9.51,35.28,35.28,0,0,1-13.52,1.2,57.32,57.32,0,0,1-19.28-5.76,111,111,0,0,1-19.14-12.32A219.46,219.46,0,0,1,16,90.15c-2.28-2.41-4.55-4.82-6.69-7.23A31.27,31.27,0,0,1,2.73,71.54a26.73,26.73,0,0,1,.67-17.67,46.78,46.78,0,0,1,8.3-13.79A86.36,86.36,0,0,1,28.56,25,146,146,0,0,1,63.24,7.28,139.24,139.24,0,0,1,85.46,1.39C90.41.86,95.77.32,101.39.19ZM99.12,4.74c-1.47.13-3.08.13-4.55.27-3.08.13-6,.54-9.1.94A127.42,127.42,0,0,0,69.39,9.69,135.63,135.63,0,0,0,31.24,28,77.28,77.28,0,0,0,16,41.55a41.15,41.15,0,0,0-7.9,12.85,24.5,24.5,0,0,0-.94,16.06,28.38,28.38,0,0,0,6.29,11.25c2.54,2.95,5.22,5.89,8,8.7A190.46,190.46,0,0,0,41.82,109a102.19,102.19,0,0,0,19.14,12,45.29,45.29,0,0,0,18.21,4.69,34.23,34.23,0,0,0,9.77-1.07,34.72,34.72,0,0,0,15.66-9.64,60.32,60.32,0,0,0,9.1-12.58,104.32,104.32,0,0,0,9.24-22.62,207.58,207.58,0,0,0,5-20.48c.8-4.82,1.61-9.77,2.41-14.59.54-3.21.8-6.43,1.2-9.64a35.82,35.82,0,0,0-.27-10.71,21.11,21.11,0,0,0-8.84-13.66,27.05,27.05,0,0,0-8.7-4A50.46,50.46,0,0,0,99.12,4.74Z"/><path class="cls-1" d="M79.44,121.21A41.76,41.76,0,0,1,65,118.13a78.35,78.35,0,0,1-16.73-9.24A151.19,151.19,0,0,1,29.5,93c-4-3.88-7.9-8-11.65-12.18a31.24,31.24,0,0,1-6-9.91,22.51,22.51,0,0,1,.67-15.66,40.27,40.27,0,0,1,6.69-11A73,73,0,0,1,33.92,31,125.35,125.35,0,0,1,66.18,14.91a101.17,101.17,0,0,1,19-4.69,75,75,0,0,1,14.46-.94A40.7,40.7,0,0,1,113.44,12a22.22,22.22,0,0,1,8.17,5.35,19.75,19.75,0,0,1,5.09,11.25,36.69,36.69,0,0,1-.13,9.37c-.4,3.48-.8,7-1.34,10.58-2,13.39-4.69,26.64-9.64,39.36a88,88,0,0,1-8.43,16.6,45.91,45.91,0,0,1-9,10,30.22,30.22,0,0,1-13.92,6.43C82.78,120.94,81,121.07,79.44,121.21Z"/><path class="cls-4" d="M79.17,120.27A42.63,42.63,0,0,1,65,117.33a75.93,75.93,0,0,1-16.47-9.1A170.59,170.59,0,0,1,30,92.56c-4-3.88-7.76-7.9-11.38-12a27.54,27.54,0,0,1-5.89-9.64,21.81,21.81,0,0,1,.67-15.4A39.13,39.13,0,0,1,20,44.63,75,75,0,0,1,34.45,31.51a118,118,0,0,1,31.86-15.8,114.3,114.3,0,0,1,18.61-4.55,84.27,84.27,0,0,1,14.19-.94,38.6,38.6,0,0,1,13.52,2.68,21.4,21.4,0,0,1,8,5.22,19,19,0,0,1,5.09,11.11,34.47,34.47,0,0,1-.13,9.1c-.4,3.48-.8,7-1.34,10.31-1.87,13.25-4.69,26.24-9.51,38.69a75,75,0,0,1-8.3,16.33,44.64,44.64,0,0,1-8.84,9.91A29.07,29.07,0,0,1,84,119.87Q81.78,120.07,79.17,120.27Z"/><path class="cls-5" d="M70.33,33.79h0v.13h.27v-.27l-.27.13Zm-28.52,27Zm57.3-4.28ZM82.78,46.37Zm.13-.27Zm2.68-2.54c-.13-.4,0,.27,0,0ZM57.08,34.73Zm6.56,36.82H15v-.13l.13-.54.13-.4.13-.54.13-.13.13-.13.13-.13.13-.27.13-.13.13-.27.13-.13.13-.13h.13v-.27l.13-.13.13-.13H32.18l.8-.13.13-.13.13-.13.13-.13.13-.27.13-.67.13-.27.13-.13.13-.13h.13l-.13-.4v-.27h.4V65l.13-.27.13-.27.4-.13.13-.27.13-.27.13-.4.13-.27.27-.13.13-.27.13-.27.27-.13.13-.54H37v-.4l.27-.13.13-.4H37v-.27h.27l.13-.13.13-.4.13-.13.13-.13.13-.13.13-.13.13-.13.13-.13.13-.13L38.6,59l.13-.13H39v-.27l.13-.13.13-.13.13-.27h.13v-.54h-.27v-.4h.13l.13.13.13-.13v-.27l.13-.13.13-.13h.27l.13-.13.13-.54.13-.13.13-.13.13-.13.13-.13v-.8h.27V53.2l.13-.13.27-.13h.4v-.27l.4-.13.13-.13.13-.13.13-.4v-.4h.4v-.27l.13-.13.13-.13.13-.13h.4v.8l-.13.13h-.27V52h-.13v.13h.13v.27H42.62v.27l.13.13v-.13h1.34l.13.13.13.13.27.13v2.14h.27v-.27l.13-.13.54-.13h.67v-.13l.13-.13.13-2.54.13-.4h-.4l-.13-.13L46,51.19l-.13-.54-.13-.94v-1.2l.13-.8.13-.27.4-.13.94-.13h.27v-.4l.13-.54.13-.67.13-.4.13-.67.13-.54.13-.67.13-.4.13-.4-.13.13h-.4L48,42.49l-.13-.13v-.13l.13-.4.13-.67.13-.27.13-.13.13-.27.13-.4v-.27l-.13-.27-.13-.27-.13-.13L48.11,39,48,38.88l-.27-.13-.13-.13-.27-.13-.13-.13-.4-.13v2.28l-.13.8-.13.4-.13.13-.13.13-.13.13-.67.13H45l-.4-.13L44.49,42l-.13-.13-.13-.54V41h.13V39.14h-.27L44,38.47l-.13-.27v-.27L44,37.8l.13-.13.27-.13.13-.54.13-.13.13-.13.13-.13.4-.13h.8l.27.13.13.13.13.13.13.13.13.13.13.13.4.13.13.13.13.13.13.13.13.13.13.13.13.13.27.13.13.13.13.13.13.13L49,39v.94l-.13.67H49v-.4l.13-.4.13-.13.13-.13.13-.13.13-.13H50v-.13l.4-.13h.8l.67.13v-.54l.13-.8.13-.67.13-.54.13-.4.13-.4h-.27l-.13-.13v-.13h.4l-.13-.13v-.27H52L51.72,35v-.13l-.13-.13v-.27l-.13-.27v-.4l.13-.67.13-.4.13-.27L52,32l.13-.4.13-.4.13-.4.13-.54.13-.4.13-.4.13-.4.13-.54.13-.4.13-.13.13-.27.13-.27H54v.4l-.13.27-.13.54-.13.13-.13.67-.13.4-.13.54-.13.4-.13.54-.13.4-.13.27.4-.13.13-.13.67-.13.13-.13h.13v-.13l.13-.13h.8l1.61-.13.13-.13,1.61-.13.13-.13h2.14v-.27l.4-.13.4-.13h1.34l4-.13.27-.13H71.8v.27h.4l.4.13.13.13.4.13v.27h.4l-.27-.13v-.4l.13-.13h.27l.13.13v.27h2.28l.4.13v.13h.13v-.4h.54v.13l2.28.13.94.13v.27h1.47l.13.13h.27v-.13h.27v.13l.67.13.54.13v.27h.67V32h.27l.4.13.13.13.13.13.13.13v.27h.27l.13.27.27.13.13.4.13.54.13.4v1.2l-.13.13-.13.27-.13.54-.13.13-.13.67h.27l.8.13v.54h-.27l-.13.13h-.67v1.2H86L86.13,41l.13,1.34.13,1.47.13,1.34.13,1.61.13,1.34.13,1.34.13,1.34v.4l.54-.13h.13l.27.13.13.13v.4l-.13.13-.13.13-.13.13h-.4l-.13.13v2.68l.27-.13.13-.4.13-.13.13-.13L88,54l.13-.27.13-.13.13-.13.13-.8.13-.94.13-.27.13-.4.13-.27.13-.13.13-.4.13-.13.13-.13.13-.27.13-.27.13-.13.13-.13.13-.13.13-.27.13-.13.13-.27.13-.27.13-.13.13-.13.13-.13.13-.13.13-.27.13-.13.13-.13.13-.13.13-.27.13-.13.13-.27.13-.27.13-.13.13-.13.13-.13L93,45.3l.13-.54.13-.27h.4v-.67l.13-.13h.54v-.4h.27V43l.13-.27.54-.13h.4v-.27l.13-.27L95.9,42l.13-.27.13-.27.13-.13.13-.27.13-.27.13-.13.13-.4.13-.27.13-.27.13-.13.13-.4.13-.27.13-.13.13-.27.13-.4.13-.13.13-.27.13-.27.13-.13.13-.4.13-.27.13-.27L99,36.2l.13-.4.13-.27.13-.13.13-.4.13-.27.13-.27.13-.13.13-.27.13-.13.13-.4.13-.27.13-2,.13-.54.13-.4H101V30l.13-.13.13-.27.13-.13.13-.13.13-.13.13-.13.13-.13.13-.13.13-.13.13-.13.13-.13.13-.13.13-.13.13-.13.13-.13.13-.13.13-.13.13-.13.13-.13.13-.13.13-.13.13-.13.13-.13.13-.13.13-.13.13-.13.13-.13.13-.13.13-.13.27-.13.13-.13.4-.13h2.28l.13.13.13.13.13.13.13.13.13.13.13.13.13.13.13.13.13.13.13.13.13.27.13.27.13.27.13.13.13.27.13.13.13.27.13.27.13.27.13.27.13.4.13.13.13.27.13.27.13.13.13.4.13.4.13.54.13.13.13.27.13.4.13.4v.4h.13l.13.13.13.27.13.27.13.13.8.13.27.13.13.13.13.13.13.13.13.27.13.13.13.13.13.27.13.13v.4h.13l.13.27.13.4v.27h.13v.13H110.9v.54H111l.13.13.13.4.27.13.13.27v.4l-.13,1.2.13.67v1.47l.13.4.13.67.13.4.13.4v.27l.13.13.13.4.13.27.13.4.13.8.13.54.13.13.13.27.13.27.13.4.13.4.13.4.13.13.13.54.13.13.13.67.13.4.13.27.13.13.13.54.13.8.13.4.13.27.13.67.13.54v1.07l-.13.8v.13l.13.54.13.4.13.67.13.27.13.54.13.54.13.54.13.13.13.67.13.4.13.4.13.54.13.27.13.13.13.54.13.13v.54l.13.4.13.4.13.4v.54l.13.4.13.13.13.13.13.13v.27h.27l.13.27.27.13v.27h.27l.13.27.13.13.13.54.13.13v1.61l-.13.4h-4.15v-.13h-.13l-.13.13H100.19l-.13-.13-.13-.4-.13-.54V67.12l.13-.4.13-.4.13-.67.13-.4.13-.4.13-1.34.13-.4V62l.13-.4.13-.4.13-.4.13-1.34.13-.67.13-.4.13-.13h.67V58h.4v-.4h.4l.13.67.13.8.13.4.13.4.13.13v.13l.13.13.13.13.13.27.13.27.13.13.13.27.13.13.13.13.13.13.13.13.13.13V63l-.13.4-.13.13.13.27.13.13.13.13.13.13.13.13.13.13.13.13.13.13.13.13.13.13.13.13.13.13.13.13.27.13.13.13.13.13.13.13.27.13.13.13.13.13.13.13.27.13.27.13.13.13L109,67l.27.13.13.13.27.13.27.13.27.13.4.13.27.13.54.13.4.13v.13h.67l-.13-.27-.13-.54L112.1,67l-.13-.4-.13-.54-.13-.13-.13-.13-.13-.4-.13-.4v-.27l-.8.13h-.4v.4H110l-.4-.13v-.67l-.13-.4-.13-.13-.4-.13v-.4H109v-.13h-.13l-.13-.4v-.27h-.27l-.13-.4-.13-.27v-.8h-.13l-.13-.27-1.07-.94-.13-.13-.13-.4-.13-.67-.13-.13-.13-.13-.27-.13v-.54l-.13-.4-.13-.13-.13-.4-.13-.27v-.27h-.27l-.13-.8-.27-.13-.13-.27-.13-.4-.13-.13-.13-.13-.13-.13-.13-.8-.13-.13-.13-.27-.13-.27-.13-.27-.13-.13-.13-.27-.13-.4-.13-.27-.13-.4-.13-.27-.13-.27-.13-.67-.13-.54-.13-.13-.13-.27-.13-.4-.13-.54-.13-.4-.13-.8-.13-.4-.13-.13-.13-.4-.13.27-.13,1.07-.13.13-.13.67-.13.13h-.13v1.07l-.13.27-.13.4-.13.27-.13.4-.13.4-.13.27-.13.8-.13.94h-.27v.27l-.13.8-.13.13v.94l-.13.13-.13.4-.13.13-.13.8-.13.4-.13.4-.13.13h-.13v.13h.13v.54l-.13.13-.13.4-.13.4-.13.27-.13.4-.13.4-.13,1.07.13.13V63h.67v2.54L97.37,67l-.13,2.95v2H63.64ZM85.33,44.63h0l.13-.13h0l-.13.13Zm.27-.8h.13V43.7h0v-.13h0v-.13H86v-.13h.13v-.13h.13v-.27h0l.13-.13V42h0V40.88h0V39.14h0v.54l-.13.13v.27l-.13.13v.4H86v.27l-.13.13v.4l-.13.27v.13l-.13.27h0v.4l-.13.13v.27l-.13.13v.4l-.13.13h.13v.13h0v.13Zm-43.78,17Zm19.55-5.09Zm0,0Zm0,0Zm0,0Zm0,0Zm0,0Zm0,0ZM99.92,59ZM48.11,57.08,48,58.42h.8c.13,0,.13,0,.27-.13l.27-1.34h-.94c-.13,0-.13.13-.27.13Zm52.75.4Zm-57.3-.94h.27v-.13l-.27.13Zm9.1-5.62v-.13h.4V49.72l.13-.54v-.27h-.13v-.13l.13-.13h-.4v.4h-.13l-.4.13H52v2h.27v-.13h.4v-.13Zm46.45,5.62Zm-1.47-6.43v-.4h-.13v.67h.13v-.27Zm1.61,8.57v-2l.13.13v.27l.13.13v.13h.13v-.4h0l-.13-.13h0l-.13-.27V56h0v-.8h-.13V54l-.13-.13v-1.2L99,52.4v-.94h.13V52.8h.13v.8l.13.13v.13h.27v.27l.13.4v.67l.13.27v.4l.13.27h0v.4h-.13v.13h.27v.4l.13.27h0v.27l.13.13V59l.13.4h-.27v-.13h-.13v-.13l-.13-.13h-.8ZM50.92,51.33h.27v-.13l-.27.13Zm-3.61-.8h.13v-.13l-.13.13ZM81,49.85h.27v-.67l.13-.13v-.13l.13-.13v-.4l.13-.27v-.4h0v-.13h.13v-.13h0v.13h-.27v.27h0l-.13.13h0v.13h0v.13h-.13V48h0l-.13.13h0v.4H81v.27l-.13.4.13.67Zm1.74-3.48Zm.13-.27Zm-6.43,7.76-.4-1.74V52l-1.87.54.13.27-1.61,1.47.13.13h0l-.4.8-.13-.13-.67,1.2h0l-.27,1.47h.13l.54.13,4.42-4Zm-4.55,4.28-1.34-.27V54.41l1.47-.67v-.4H71.8V53.2h.27l.27-.67h.13l.13.54h.13l.13-.54h-.27l.13-1.34H73l.13-.67h0v-.4h.4l-.4,2.54h.27l.27-.8h.13v-1.2h.27l-.13-.8-3.08-.4v-.13h1.07l.27-1.07h.13l-.27-.54h-.4l-.27.54v-.13l-.27-.54h0c0-.4-.13-.27-.13-.54v-.8h.54v-.13h.8v1.2c.4,0,.27-.13.27.13h.13l.27-.27h0v-.94h.27V44.9h.13l-.27-3.48H73l.13-1.47h.27c-.8-.67,0-2.81-.54-2.81h-.8c-.27,0-.27.4-.4.54-.4.54.13-.13-.27-.27L71.14,39l.13.8h-.13v.94h.13l.27-1.61V41h-.27l-.67,7.36h-.13l-.13,4.69h.13l.13-1.87h.27v.27h0l-.13,2.14h0c-.94,0-.67-.54-.67,1.61v2.68h.27l.13.13-.27.4v.13l1.74-.4ZM54.4,43.7v-1.2l.13-.4v-.94l.13-.27h-.94v.27H53.6V42h-.27v.13h.13v.13h-.13V43l-.13.54v.94l-.13.54v.4h-.13l.13.13h0l.13.54v.54h.13V47h.27v-.13h.13l.13-.27V46l.13-.4v-.94l.13-.4v-.4l.27-.13Zm31.06.8Zm0-.27Zm.13-.13Zm0-.13Zm0,0Zm3.48-4.55h0l-.13-.13v1.07h0v.13h0v.13h0v-.13h0v-.13h0v-.94Zm7.63.4h0l-.13-.27v-.8h0l-.13-.13h-.27v.13h0v.13h0V39h0v.13l.54.67ZM58.15,37.67l1.2.27.27.13-2,7.23h-.13l-.13.8h-.13V44.9a33.84,33.84,0,0,0-.13,3.75l.13.54h.67v.13h.4l-.13-.4h.27v-.27h.13l.94-7.76h.27c0-.67.54-1.34.54-2.81v-.13l-2.14-.27Zm27.44,5.89c0,.27-.13-.4,0,0Zm1.87-2Zm-22-6.83v.94c0,.13,0,.13.13.13H66l1.2-.13v-1.2l-1.74.27Zm-.4,0,.13,1.34H67c.27,0,.4-.13.54-.13v-1.2c-.13-.13-.13-.13-.27-.13h-.67l-1.47.13Zm-8,0Zm12.45-.8h0l.13-.13h-.13Z"/><path class="cls-2" d="M96.57,64.31a2,2,0,1,1-2,2,2,2,0,0,1,2-2Zm13.79-8.84V66.59a1.52,1.52,0,0,1-1.61,1.47h0a1.52,1.52,0,0,1-1.61-1.47v-7.5a16.42,16.42,0,0,1-21.42.13v7.36a1.52,1.52,0,0,1-1.61,1.47h0a1.52,1.52,0,0,1-1.61-1.47V55.34h0a1.68,1.68,0,0,1,2.81-.94c7.9,7.1,15.66,6.16,22.09.27.94-.94,3.08-.67,2.95.8Zm-83-1.34H47.71a1.54,1.54,0,0,1,0,3.08H27.63c-1.74.13-1.74,2.28,0,2.28H45.7a4.43,4.43,0,0,1,4.42,4.28,4.2,4.2,0,0,1-4.28,4.15H25.35a1.52,1.52,0,0,1-1.47-1.61h0a1.61,1.61,0,0,1,1.47-1.61H45.83c1.47-.13,1.07-2.14-.13-2.14H27.22a4.34,4.34,0,0,1-4.28-4.15,4.41,4.41,0,0,1,4.42-4.28ZM57.88,64.71H77.83a1.52,1.52,0,0,1,1.47,1.61h0a1.52,1.52,0,0,1-1.47,1.61H57.75a4.63,4.63,0,0,1-4.42-4.28V55.48a1.63,1.63,0,0,1,1.61-1.61h0a1.55,1.55,0,0,1,1.61,1.61v8c.13.67.4,1.2,1.34,1.2Z"/><path class="cls-1" d="M39.81,72.48a.49.49,0,0,1-.4-.13c-.13,0-.13-.13-.13-.27V70.2c0-.13,0-.13.13-.27s.27-.13.4-.13h2.68v.67H40.34v1.34h2.14v.67H39.81ZM44,71.81H45V70.47H44Zm-.54.67a.49.49,0,0,1-.4-.13c-.13,0-.13-.13-.13-.27V70.2a.29.29,0,0,1,.27-.27h2.41a.49.49,0,0,1,.4.13l.13.13v1.87a.29.29,0,0,1-.27.27H43.42Zm5.76-2.54a.49.49,0,0,1,.4.13c.13,0,.13.13.13.27v2.28H48.64V70.74H47.57v1.87h-.94V70.07h2.54Zm1.07.27c0-.27.13-.27.54-.27h2.68v.67H51.32V71h1.61a.7.7,0,0,1,.54.27v.94a.29.29,0,0,1-.27.27H50.79l-.54-.67h2.14v-.4H50.79a.49.49,0,0,1-.4-.13c-.13,0-.13-.13-.13-.27v-.8Zm4.55.27H53.73V69.8h3.21v.67H55.87v1.87H54.8V70.47Zm5.76.67c0,.13,0,.13-.13.27s-.27.13-.4.13h-.27l.8,1.07H59.49L58.55,71h.94v-.4H58.42v1.87H57.35V69.93H60a.49.49,0,0,1,.4.13l.13.13v.94Zm3.21,1.34H61.63a.49.49,0,0,1-.4-.13c-.13,0-.13-.13-.13-.27V69.8h1.07v1.87h1.07V69.8h1.07v2.28c0,.27-.27.4-.54.4Zm1.61,0a.49.49,0,0,1-.4-.13c-.13,0-.13-.13-.13-.27V70.2c0-.13,0-.13.13-.27s.27-.13.4-.13h2.68v.67H65.91v1.34h2.14v.67H65.38Zm3.61,0a.49.49,0,0,1-.4-.13c-.13,0-.13-.13-.13-.27V70.2c0-.13,0-.13.13-.27s.27-.13.4-.13h2.68v.67H69.53v1.34h2.14v.67H69Zm4-2.54v2.54H71.94V69.93Zm1.61,1.87h1.07V70.47H74.62Zm-.54.67a.49.49,0,0,1-.4-.13c-.13,0-.13-.13-.13-.27V70.2a.29.29,0,0,1,.27-.27h2.41a.49.49,0,0,1,.4.13l.13.13v1.87a.29.29,0,0,1-.27.27H74.08ZM80,69.93a.49.49,0,0,1,.4.13c.13,0,.13.13.13.27v2.28H79.44V70.74H78.36v1.87h-.94V70.07H80Zm3.88.27c0-.27.13-.27.54-.27h2.68v.67H84.92V71h1.61a.7.7,0,0,1,.54.27v.94a.29.29,0,0,1-.27.27H84.39l-.54-.67H86v-.4H84.39a.49.49,0,0,1-.4-.13c-.13,0-.13-.13-.13-.27v-.8Zm4.82,2.28H87.6v-.67h1.07Zm2.14,0v-.67h.27l-.27-.8-.54,1.47H89.21l1.07-2.54h1.07l1.07,2.54Zm3.21,0H93v-.67H94Z"/></svg>